<svg xmlns="http://www.w3.org/2000/svg" xmlns:xlink="http://www.w3.org/1999/xlink" width="200" height="200" class="icon" p-id="32611" t="1635336730938" version="1.1" viewBox="0 0 1024 1024"><defs><style type="text/css"/></defs><path fill="#FFF" d="M0 1.3H1024.6V1024H0z" p-id="32612"/><path fill="#FF8E31" d="M449.7 571.8c-157.7 0-290.3-17-330.2-40.1 23.3 164 164.1 290.1 334.5 290.1 155.6 0 286.6-105.1 326-248.1 2.9-10.5 5.3-21.3 7.2-32.2 0.8-4.7 1.5-9.4 2.1-14.1h-3.2c-29.6 25.2-168.9 44.4-336.4 44.4z" p-id="32613"/><path fill="#000202" d="M454.1 836C269.3 836 114.9 691.7 102.6 507.5c-0.5-7.9-0.8-15.8-0.8-23.8 0-7.9 6.4-14.3 14.3-14.3s14.3 6.4 14.3 14.3c0 7.4 0.2 14.7 0.7 21.9 11.3 169.3 153.2 301.9 323.1 301.9 145.3 0 273.7-97.7 312.2-237.6 2.8-10.1 5.1-20.5 6.9-30.9 1.5-8.8 2.7-17.8 3.5-26.7 0.8-9.5 1.2-19.1 1.2-28.6 0-7.9 6.4-14.3 14.3-14.3s14.3 6.4 14.3 14.3c0 10.3-0.5 20.7-1.4 31-0.8 9.8-2.1 19.5-3.8 29.1-1.9 11.3-4.5 22.6-7.5 33.6C751.9 729.7 612.2 836 454.1 836zM747.1 449.9c-6.2 0-12-4.1-13.7-10.5-2.1-7.6 2.3-15.4 9.9-17.6 18.5-5.1 27-9.6 30.8-12.2-10.1-7-47.6-21.1-143.5-30.5-7.8-0.8-13.6-7.7-12.8-15.6 0.8-7.8 7.7-13.6 15.6-12.8 171.4 16.8 171.4 47.4 171.4 59 0 21.9-28.7 32.7-53.8 39.6-1.4 0.4-2.7 0.6-3.9 0.6z m29.6-37.8h0.1-0.1z" p-id="32614"/><path fill="#000202" d="M452.4 476.8c-36.1 0-352.3-1.9-352.3-67.1 0-12.1 0-44.3 188.2-60.5 8-0.8 14.7 5.1 15.4 13 0.7 7.8-5.1 14.8-13 15.4-108.8 9.4-149.9 24.8-160.3 32.2 20.8 16.5 140.1 38.5 322 38.5 42.7 0 84.3-1.2 123.7-3.7 7.9-0.5 14.6 5.5 15.1 13.3 0.5 7.9-5.5 14.6-13.4 15.1-39.9 2.6-82.2 3.8-125.4 3.8zM653.4 466.4c-7.1 0-13.3-5.4-14.1-12.6-0.9-7.8 4.7-14.9 12.5-15.8 6-0.7 11.9-1.4 17.6-2.2 7.9-1.1 15 4.4 16 12.2 1 7.8-4.4 15-12.2 16-5.9 0.8-11.9 1.5-18.1 2.2-0.6 0.2-1.1 0.2-1.7 0.2z" p-id="32615"/><path fill="#FF8E31" d="M911.4 638.6c-0.9 0-1.9-0.1-2.8-0.3-7.7-1.5-12.7-9-11.2-16.8 3.2-16 0.1-31.1-8.8-43.7-11.5-16.1-31.7-27.2-55.4-30.5-7.8-1.1-13.3-8.3-12.2-16.1 1.1-7.8 8.2-13.2 16.1-12.2 31.5 4.3 58.8 19.7 74.8 42.2 13.6 19.1 18.3 41.9 13.5 65.8-1.4 6.9-7.3 11.6-14 11.6z" p-id="32616"/><path fill="#F4702A" d="M778.3 729.4c-7.2 0-14.1-0.5-20.5-1.3-7.8-1.1-13.3-8.3-12.2-16.1 1.1-7.8 8.2-13.3 16.1-12.2 40.8 5.6 122.5-11.6 135.8-78.2 1.5-7.7 9.1-12.8 16.8-11.2 7.7 1.5 12.7 9 11.2 16.8-14.7 73.1-90 102.2-147.2 102.2z" p-id="32617"/><path fill="#000202" d="M579.1 922.7H325.6c-7.9 0-14.3-6.4-14.3-14.3s6.4-14.3 14.3-14.3h253.6c7.9 0 14.3 6.4 14.3 14.3-0.1 8-6.5 14.3-14.4 14.3zM396.2 362.6c-3.6 0-7.3-1.4-10.1-4.2-2.2-2.2-54.7-55.7-54.7-131.7 0-75.1 51.4-141.4 53.6-144.2 3.7-4.8 10-6.6 15.7-4.7 5.7 1.9 9.6 7.2 9.7 13.2 0 0 0.6 15.2 10.7 38.7l3.2 7.4c10.8 24.7 28.9 66.1 28.9 98.2 0 76.1-45.2 121.4-47.1 123.2-2.7 2.7-6.3 4.1-9.9 4.1z m-6.5-235.1c-13.5 24-29.9 60.9-29.9 99.2 0 44.7 22.5 81.2 36.1 99.3 11.4-16.2 28.8-47.8 28.8-90.7 0-26.2-16.6-64.1-26.5-86.8l-3.3-7.6c-2-4.7-3.7-9.2-5.2-13.4zM519.6 420.7c-3.6 0-7.2-1.4-10-4.1-1.4-1.3-33.6-33.6-33.6-87.5 0-22.9 12.1-50.7 20.2-69l2.2-5c6.5-15.2 7-24.9 7-24.9 0.3-6 4.2-11.3 10-13.1 5.8-1.8 12 0.1 15.6 4.9 1.5 2 37 49 37 101.8 0 53.8-36.7 91.2-38.2 92.8-2.9 2.7-6.6 4.1-10.2 4.1z m4.8-154.2l-2.2 5c-6.7 15.2-17.8 40.6-17.8 57.6 0 24 8.3 42.5 15.3 54.1 8.6-12.8 19.5-34.1 19.5-59.4 0.1-21.2-7.2-41.7-14.8-57.3z" p-id="32618"/></svg>